<mxfile host="app.diagrams.net" modified="2023-11-10T11:42:17.277Z" agent="Mozilla/5.0 (Windows NT 10.0; Win64; x64; rv:109.0) Gecko/20100101 Firefox/119.0" etag="R1H8Z_tBoYsFGwsu7vRj" version="22.1.0" type="device">
  <diagram id="C5RBs43oDa-KdzZeNtuy" name="Page-1">
    <mxGraphModel dx="2272" dy="772" grid="1" gridSize="10" guides="1" tooltips="1" connect="1" arrows="1" fold="1" page="1" pageScale="1" pageWidth="827" pageHeight="1169" math="0" shadow="0">
      <root>
        <mxCell id="WIyWlLk6GJQsqaUBKTNV-0" />
        <mxCell id="WIyWlLk6GJQsqaUBKTNV-1" parent="WIyWlLk6GJQsqaUBKTNV-0" />
        <mxCell id="cEoIS4d8Jn4WhLdN-5tV-4" style="edgeStyle=orthogonalEdgeStyle;rounded=0;orthogonalLoop=1;jettySize=auto;html=1;entryX=0.5;entryY=0;entryDx=0;entryDy=0;" parent="WIyWlLk6GJQsqaUBKTNV-1" source="WIyWlLk6GJQsqaUBKTNV-3" target="cEoIS4d8Jn4WhLdN-5tV-0" edge="1">
          <mxGeometry relative="1" as="geometry" />
        </mxCell>
        <mxCell id="WIyWlLk6GJQsqaUBKTNV-3" value="Start" style="rounded=1;whiteSpace=wrap;html=1;fontSize=12;glass=0;strokeWidth=1;shadow=0;" parent="WIyWlLk6GJQsqaUBKTNV-1" vertex="1">
          <mxGeometry x="-630" y="20" width="120" height="40" as="geometry" />
        </mxCell>
        <mxCell id="cEoIS4d8Jn4WhLdN-5tV-3" style="edgeStyle=orthogonalEdgeStyle;rounded=0;orthogonalLoop=1;jettySize=auto;html=1;" parent="WIyWlLk6GJQsqaUBKTNV-1" source="cEoIS4d8Jn4WhLdN-5tV-0" target="cEoIS4d8Jn4WhLdN-5tV-1" edge="1">
          <mxGeometry relative="1" as="geometry" />
        </mxCell>
        <mxCell id="cEoIS4d8Jn4WhLdN-5tV-0" value="How many items in list?" style="shape=parallelogram;perimeter=parallelogramPerimeter;whiteSpace=wrap;html=1;fixedSize=1;" parent="WIyWlLk6GJQsqaUBKTNV-1" vertex="1">
          <mxGeometry x="-650" y="90" width="160" height="60" as="geometry" />
        </mxCell>
        <mxCell id="cEoIS4d8Jn4WhLdN-5tV-6" style="edgeStyle=orthogonalEdgeStyle;rounded=0;orthogonalLoop=1;jettySize=auto;html=1;" parent="WIyWlLk6GJQsqaUBKTNV-1" source="cEoIS4d8Jn4WhLdN-5tV-1" target="cEoIS4d8Jn4WhLdN-5tV-5" edge="1">
          <mxGeometry relative="1" as="geometry" />
        </mxCell>
        <mxCell id="cEoIS4d8Jn4WhLdN-5tV-1" value="Randomly generate x items and place them in an array" style="rounded=0;whiteSpace=wrap;html=1;" parent="WIyWlLk6GJQsqaUBKTNV-1" vertex="1">
          <mxGeometry x="-630" y="170" width="120" height="60" as="geometry" />
        </mxCell>
        <mxCell id="cEoIS4d8Jn4WhLdN-5tV-10" value="&lt;div&gt;Insertion&lt;br&gt;&lt;/div&gt;" style="edgeStyle=orthogonalEdgeStyle;rounded=0;orthogonalLoop=1;jettySize=auto;html=1;entryX=0.5;entryY=0;entryDx=0;entryDy=0;" parent="WIyWlLk6GJQsqaUBKTNV-1" source="cEoIS4d8Jn4WhLdN-5tV-5" target="cEoIS4d8Jn4WhLdN-5tV-9" edge="1">
          <mxGeometry x="-0.1765" relative="1" as="geometry">
            <mxPoint as="offset" />
          </mxGeometry>
        </mxCell>
        <mxCell id="cEoIS4d8Jn4WhLdN-5tV-11" value="&lt;div&gt;Bubble&lt;/div&gt;" style="edgeStyle=orthogonalEdgeStyle;rounded=0;orthogonalLoop=1;jettySize=auto;html=1;entryX=0.5;entryY=0;entryDx=0;entryDy=0;" parent="WIyWlLk6GJQsqaUBKTNV-1" source="cEoIS4d8Jn4WhLdN-5tV-5" target="cEoIS4d8Jn4WhLdN-5tV-7" edge="1">
          <mxGeometry x="-0.125" relative="1" as="geometry">
            <mxPoint as="offset" />
          </mxGeometry>
        </mxCell>
        <mxCell id="cEoIS4d8Jn4WhLdN-5tV-5" value="Pick sorting algorithm" style="shape=parallelogram;perimeter=parallelogramPerimeter;whiteSpace=wrap;html=1;fixedSize=1;" parent="WIyWlLk6GJQsqaUBKTNV-1" vertex="1">
          <mxGeometry x="-650" y="270" width="160" height="60" as="geometry" />
        </mxCell>
        <mxCell id="cEoIS4d8Jn4WhLdN-5tV-39" style="edgeStyle=orthogonalEdgeStyle;rounded=0;orthogonalLoop=1;jettySize=auto;html=1;" parent="WIyWlLk6GJQsqaUBKTNV-1" source="4BnCEi7belw13SmN_g7K-0" target="cEoIS4d8Jn4WhLdN-5tV-38" edge="1">
          <mxGeometry relative="1" as="geometry" />
        </mxCell>
        <mxCell id="cEoIS4d8Jn4WhLdN-5tV-7" value="Start CPU time counter" style="rounded=0;whiteSpace=wrap;html=1;" parent="WIyWlLk6GJQsqaUBKTNV-1" vertex="1">
          <mxGeometry x="-870" y="320" width="120" height="60" as="geometry" />
        </mxCell>
        <mxCell id="cEoIS4d8Jn4WhLdN-5tV-14" style="edgeStyle=orthogonalEdgeStyle;rounded=0;orthogonalLoop=1;jettySize=auto;html=1;entryX=0.5;entryY=0;entryDx=0;entryDy=0;" parent="WIyWlLk6GJQsqaUBKTNV-1" source="cEoIS4d8Jn4WhLdN-5tV-9" target="cEoIS4d8Jn4WhLdN-5tV-13" edge="1">
          <mxGeometry relative="1" as="geometry" />
        </mxCell>
        <mxCell id="cEoIS4d8Jn4WhLdN-5tV-9" value="Start CPU time counter" style="rounded=0;whiteSpace=wrap;html=1;" parent="WIyWlLk6GJQsqaUBKTNV-1" vertex="1">
          <mxGeometry x="-450" y="320" width="120" height="60" as="geometry" />
        </mxCell>
        <mxCell id="cEoIS4d8Jn4WhLdN-5tV-13" value="&lt;div&gt;Create a 2nd empty list&lt;/div&gt;" style="rounded=0;whiteSpace=wrap;html=1;" parent="WIyWlLk6GJQsqaUBKTNV-1" vertex="1">
          <mxGeometry x="-450" y="390" width="120" height="60" as="geometry" />
        </mxCell>
        <mxCell id="cEoIS4d8Jn4WhLdN-5tV-18" style="edgeStyle=orthogonalEdgeStyle;rounded=0;orthogonalLoop=1;jettySize=auto;html=1;entryX=0.5;entryY=0;entryDx=0;entryDy=0;" parent="WIyWlLk6GJQsqaUBKTNV-1" source="cEoIS4d8Jn4WhLdN-5tV-15" target="4BnCEi7belw13SmN_g7K-5" edge="1">
          <mxGeometry relative="1" as="geometry">
            <mxPoint x="-390" y="660" as="targetPoint" />
          </mxGeometry>
        </mxCell>
        <mxCell id="cEoIS4d8Jn4WhLdN-5tV-15" value="Move first number of array 1 into 2nd list" style="rounded=0;whiteSpace=wrap;html=1;" parent="WIyWlLk6GJQsqaUBKTNV-1" vertex="1">
          <mxGeometry x="-450" y="560" width="120" height="60" as="geometry" />
        </mxCell>
        <mxCell id="cEoIS4d8Jn4WhLdN-5tV-28" value="No" style="edgeStyle=orthogonalEdgeStyle;rounded=0;orthogonalLoop=1;jettySize=auto;html=1;entryX=1;entryY=0.5;entryDx=0;entryDy=0;exitX=1;exitY=0.5;exitDx=0;exitDy=0;" parent="WIyWlLk6GJQsqaUBKTNV-1" source="4BnCEi7belw13SmN_g7K-5" target="cEoIS4d8Jn4WhLdN-5tV-20" edge="1">
          <mxGeometry relative="1" as="geometry">
            <Array as="points">
              <mxPoint x="-325" y="690" />
              <mxPoint x="-210" y="690" />
              <mxPoint x="-210" y="499" />
            </Array>
            <mxPoint x="-330" y="690" as="sourcePoint" />
          </mxGeometry>
        </mxCell>
        <mxCell id="cEoIS4d8Jn4WhLdN-5tV-24" value="&lt;div&gt;No&lt;/div&gt;" style="edgeStyle=orthogonalEdgeStyle;rounded=0;orthogonalLoop=1;jettySize=auto;html=1;entryX=0.5;entryY=0;entryDx=0;entryDy=0;" parent="WIyWlLk6GJQsqaUBKTNV-1" source="cEoIS4d8Jn4WhLdN-5tV-20" target="cEoIS4d8Jn4WhLdN-5tV-15" edge="1">
          <mxGeometry relative="1" as="geometry" />
        </mxCell>
        <mxCell id="cEoIS4d8Jn4WhLdN-5tV-29" value="Yes" style="edgeStyle=orthogonalEdgeStyle;rounded=0;orthogonalLoop=1;jettySize=auto;html=1;entryX=1;entryY=0.5;entryDx=0;entryDy=0;" parent="WIyWlLk6GJQsqaUBKTNV-1" source="cEoIS4d8Jn4WhLdN-5tV-20" target="cEoIS4d8Jn4WhLdN-5tV-25" edge="1">
          <mxGeometry relative="1" as="geometry" />
        </mxCell>
        <mxCell id="cEoIS4d8Jn4WhLdN-5tV-20" value="&lt;div&gt;Is list&amp;nbsp; 1&amp;nbsp;&lt;/div&gt;&lt;div&gt;empty&lt;/div&gt;" style="rhombus;whiteSpace=wrap;html=1;" parent="WIyWlLk6GJQsqaUBKTNV-1" vertex="1">
          <mxGeometry x="-430" y="473" width="80" height="52" as="geometry" />
        </mxCell>
        <mxCell id="cEoIS4d8Jn4WhLdN-5tV-21" style="edgeStyle=orthogonalEdgeStyle;rounded=0;orthogonalLoop=1;jettySize=auto;html=1;entryX=0.499;entryY=0.079;entryDx=0;entryDy=0;entryPerimeter=0;" parent="WIyWlLk6GJQsqaUBKTNV-1" source="cEoIS4d8Jn4WhLdN-5tV-13" target="cEoIS4d8Jn4WhLdN-5tV-20" edge="1">
          <mxGeometry relative="1" as="geometry" />
        </mxCell>
        <mxCell id="cEoIS4d8Jn4WhLdN-5tV-34" style="edgeStyle=orthogonalEdgeStyle;rounded=0;orthogonalLoop=1;jettySize=auto;html=1;entryX=0.5;entryY=0;entryDx=0;entryDy=0;" parent="WIyWlLk6GJQsqaUBKTNV-1" source="cEoIS4d8Jn4WhLdN-5tV-25" target="cEoIS4d8Jn4WhLdN-5tV-30" edge="1">
          <mxGeometry relative="1" as="geometry" />
        </mxCell>
        <mxCell id="cEoIS4d8Jn4WhLdN-5tV-25" value="End CPU time counter" style="rounded=0;whiteSpace=wrap;html=1;" parent="WIyWlLk6GJQsqaUBKTNV-1" vertex="1">
          <mxGeometry x="-630" y="775" width="120" height="60" as="geometry" />
        </mxCell>
        <mxCell id="cEoIS4d8Jn4WhLdN-5tV-35" style="edgeStyle=orthogonalEdgeStyle;rounded=0;orthogonalLoop=1;jettySize=auto;html=1;" parent="WIyWlLk6GJQsqaUBKTNV-1" source="cEoIS4d8Jn4WhLdN-5tV-30" target="cEoIS4d8Jn4WhLdN-5tV-33" edge="1">
          <mxGeometry relative="1" as="geometry" />
        </mxCell>
        <mxCell id="cEoIS4d8Jn4WhLdN-5tV-30" value="Print CPU time taken" style="rounded=0;whiteSpace=wrap;html=1;" parent="WIyWlLk6GJQsqaUBKTNV-1" vertex="1">
          <mxGeometry x="-630" y="860" width="120" height="60" as="geometry" />
        </mxCell>
        <mxCell id="cEoIS4d8Jn4WhLdN-5tV-32" value="Quit" style="rounded=1;whiteSpace=wrap;html=1;fontSize=12;glass=0;strokeWidth=1;shadow=0;" parent="WIyWlLk6GJQsqaUBKTNV-1" vertex="1">
          <mxGeometry x="-630" y="1070" width="120" height="40" as="geometry" />
        </mxCell>
        <mxCell id="cEoIS4d8Jn4WhLdN-5tV-36" value="&lt;div&gt;No&lt;/div&gt;" style="edgeStyle=orthogonalEdgeStyle;rounded=0;orthogonalLoop=1;jettySize=auto;html=1;" parent="WIyWlLk6GJQsqaUBKTNV-1" source="cEoIS4d8Jn4WhLdN-5tV-33" target="cEoIS4d8Jn4WhLdN-5tV-32" edge="1">
          <mxGeometry relative="1" as="geometry" />
        </mxCell>
        <mxCell id="cEoIS4d8Jn4WhLdN-5tV-37" value="Yes" style="edgeStyle=orthogonalEdgeStyle;rounded=0;orthogonalLoop=1;jettySize=auto;html=1;exitX=1;exitY=0.5;exitDx=0;exitDy=0;entryX=1;entryY=0.5;entryDx=0;entryDy=0;" parent="WIyWlLk6GJQsqaUBKTNV-1" source="cEoIS4d8Jn4WhLdN-5tV-33" target="cEoIS4d8Jn4WhLdN-5tV-0" edge="1">
          <mxGeometry relative="1" as="geometry">
            <Array as="points">
              <mxPoint x="-70" y="990" />
              <mxPoint x="-70" y="120" />
            </Array>
          </mxGeometry>
        </mxCell>
        <mxCell id="cEoIS4d8Jn4WhLdN-5tV-33" value="Run again?" style="shape=parallelogram;perimeter=parallelogramPerimeter;whiteSpace=wrap;html=1;fixedSize=1;" parent="WIyWlLk6GJQsqaUBKTNV-1" vertex="1">
          <mxGeometry x="-650" y="960" width="160" height="60" as="geometry" />
        </mxCell>
        <mxCell id="cEoIS4d8Jn4WhLdN-5tV-41" style="edgeStyle=orthogonalEdgeStyle;rounded=0;orthogonalLoop=1;jettySize=auto;html=1;entryX=0.5;entryY=0;entryDx=0;entryDy=0;" parent="WIyWlLk6GJQsqaUBKTNV-1" source="cEoIS4d8Jn4WhLdN-5tV-38" target="cEoIS4d8Jn4WhLdN-5tV-40" edge="1">
          <mxGeometry relative="1" as="geometry" />
        </mxCell>
        <mxCell id="cEoIS4d8Jn4WhLdN-5tV-38" value="Compare first 2 numbers" style="rounded=0;whiteSpace=wrap;html=1;" parent="WIyWlLk6GJQsqaUBKTNV-1" vertex="1">
          <mxGeometry x="-870" y="488" width="120" height="60" as="geometry" />
        </mxCell>
        <mxCell id="cEoIS4d8Jn4WhLdN-5tV-40" value="If first number is smaller swap &amp;amp; set isSwapped to true" style="rounded=0;whiteSpace=wrap;html=1;" parent="WIyWlLk6GJQsqaUBKTNV-1" vertex="1">
          <mxGeometry x="-870" y="575" width="120" height="60" as="geometry" />
        </mxCell>
        <mxCell id="4BnCEi7belw13SmN_g7K-13" style="edgeStyle=orthogonalEdgeStyle;rounded=0;orthogonalLoop=1;jettySize=auto;html=1;entryX=1;entryY=0.5;entryDx=0;entryDy=0;" edge="1" parent="WIyWlLk6GJQsqaUBKTNV-1" source="cEoIS4d8Jn4WhLdN-5tV-42" target="cEoIS4d8Jn4WhLdN-5tV-40">
          <mxGeometry relative="1" as="geometry">
            <Array as="points">
              <mxPoint x="-650" y="605" />
            </Array>
          </mxGeometry>
        </mxCell>
        <mxCell id="cEoIS4d8Jn4WhLdN-5tV-42" value="Compare next 2 numbers" style="rounded=0;whiteSpace=wrap;html=1;" parent="WIyWlLk6GJQsqaUBKTNV-1" vertex="1">
          <mxGeometry x="-710" y="664" width="120" height="60" as="geometry" />
        </mxCell>
        <mxCell id="4BnCEi7belw13SmN_g7K-1" value="" style="edgeStyle=orthogonalEdgeStyle;rounded=0;orthogonalLoop=1;jettySize=auto;html=1;" edge="1" parent="WIyWlLk6GJQsqaUBKTNV-1" source="cEoIS4d8Jn4WhLdN-5tV-7" target="4BnCEi7belw13SmN_g7K-0">
          <mxGeometry relative="1" as="geometry">
            <mxPoint x="-810" y="380" as="sourcePoint" />
            <mxPoint x="-810" y="488" as="targetPoint" />
          </mxGeometry>
        </mxCell>
        <mxCell id="4BnCEi7belw13SmN_g7K-0" value="Set isSwapped to false" style="rounded=0;whiteSpace=wrap;html=1;" vertex="1" parent="WIyWlLk6GJQsqaUBKTNV-1">
          <mxGeometry x="-870" y="406" width="120" height="60" as="geometry" />
        </mxCell>
        <mxCell id="4BnCEi7belw13SmN_g7K-8" style="edgeStyle=orthogonalEdgeStyle;rounded=0;orthogonalLoop=1;jettySize=auto;html=1;entryX=0.5;entryY=0;entryDx=0;entryDy=0;" edge="1" parent="WIyWlLk6GJQsqaUBKTNV-1" source="4BnCEi7belw13SmN_g7K-2" target="4BnCEi7belw13SmN_g7K-5">
          <mxGeometry relative="1" as="geometry">
            <Array as="points">
              <mxPoint x="-290" y="800" />
              <mxPoint x="-290" y="628" />
              <mxPoint x="-390" y="628" />
            </Array>
          </mxGeometry>
        </mxCell>
        <mxCell id="4BnCEi7belw13SmN_g7K-2" value="Swap the 2 numbers" style="rounded=0;whiteSpace=wrap;html=1;" vertex="1" parent="WIyWlLk6GJQsqaUBKTNV-1">
          <mxGeometry x="-450" y="775" width="120" height="60" as="geometry" />
        </mxCell>
        <mxCell id="4BnCEi7belw13SmN_g7K-5" value="Is bigger than the next number in the list?" style="rhombus;whiteSpace=wrap;html=1;" vertex="1" parent="WIyWlLk6GJQsqaUBKTNV-1">
          <mxGeometry x="-455" y="648" width="130" height="86" as="geometry" />
        </mxCell>
        <mxCell id="4BnCEi7belw13SmN_g7K-7" value="Yes" style="edgeStyle=orthogonalEdgeStyle;rounded=0;orthogonalLoop=1;jettySize=auto;html=1;entryX=0.503;entryY=-0.054;entryDx=0;entryDy=0;entryPerimeter=0;" edge="1" parent="WIyWlLk6GJQsqaUBKTNV-1" source="4BnCEi7belw13SmN_g7K-5" target="4BnCEi7belw13SmN_g7K-2">
          <mxGeometry relative="1" as="geometry" />
        </mxCell>
        <mxCell id="4BnCEi7belw13SmN_g7K-10" value="" style="edgeStyle=orthogonalEdgeStyle;rounded=0;orthogonalLoop=1;jettySize=auto;html=1;entryX=0.5;entryY=0;entryDx=0;entryDy=0;" edge="1" parent="WIyWlLk6GJQsqaUBKTNV-1" source="cEoIS4d8Jn4WhLdN-5tV-40" target="4BnCEi7belw13SmN_g7K-9">
          <mxGeometry relative="1" as="geometry">
            <mxPoint x="-810" y="635" as="sourcePoint" />
            <mxPoint x="-810" y="715" as="targetPoint" />
          </mxGeometry>
        </mxCell>
        <mxCell id="4BnCEi7belw13SmN_g7K-12" value="No" style="edgeStyle=orthogonalEdgeStyle;rounded=0;orthogonalLoop=1;jettySize=auto;html=1;" edge="1" parent="WIyWlLk6GJQsqaUBKTNV-1" source="4BnCEi7belw13SmN_g7K-9" target="cEoIS4d8Jn4WhLdN-5tV-42">
          <mxGeometry relative="1" as="geometry" />
        </mxCell>
        <mxCell id="4BnCEi7belw13SmN_g7K-9" value="isLast number in list" style="rhombus;whiteSpace=wrap;html=1;" vertex="1" parent="WIyWlLk6GJQsqaUBKTNV-1">
          <mxGeometry x="-850" y="654" width="80" height="80" as="geometry" />
        </mxCell>
        <mxCell id="4BnCEi7belw13SmN_g7K-15" value="Yes" style="edgeStyle=orthogonalEdgeStyle;rounded=0;orthogonalLoop=1;jettySize=auto;html=1;" edge="1" parent="WIyWlLk6GJQsqaUBKTNV-1" source="4BnCEi7belw13SmN_g7K-14" target="cEoIS4d8Jn4WhLdN-5tV-25">
          <mxGeometry relative="1" as="geometry" />
        </mxCell>
        <mxCell id="4BnCEi7belw13SmN_g7K-21" value="No" style="edgeStyle=orthogonalEdgeStyle;rounded=0;orthogonalLoop=1;jettySize=auto;html=1;entryX=0;entryY=0.5;entryDx=0;entryDy=0;" edge="1" parent="WIyWlLk6GJQsqaUBKTNV-1" source="4BnCEi7belw13SmN_g7K-14" target="4BnCEi7belw13SmN_g7K-0">
          <mxGeometry relative="1" as="geometry">
            <Array as="points">
              <mxPoint x="-920" y="805" />
              <mxPoint x="-920" y="436" />
            </Array>
          </mxGeometry>
        </mxCell>
        <mxCell id="4BnCEi7belw13SmN_g7K-14" value="is isSwapped false" style="rhombus;whiteSpace=wrap;html=1;" vertex="1" parent="WIyWlLk6GJQsqaUBKTNV-1">
          <mxGeometry x="-850" y="765" width="80" height="80" as="geometry" />
        </mxCell>
        <mxCell id="4BnCEi7belw13SmN_g7K-17" style="edgeStyle=orthogonalEdgeStyle;rounded=0;orthogonalLoop=1;jettySize=auto;html=1;entryX=0.501;entryY=0.01;entryDx=0;entryDy=0;entryPerimeter=0;" edge="1" parent="WIyWlLk6GJQsqaUBKTNV-1" source="4BnCEi7belw13SmN_g7K-9" target="4BnCEi7belw13SmN_g7K-14">
          <mxGeometry relative="1" as="geometry" />
        </mxCell>
      </root>
    </mxGraphModel>
  </diagram>
</mxfile>
